<svg width="98" height="100" viewBox="0 0 98 100" fill="none" xmlns="http://www.w3.org/2000/svg">
<g clip-path="url(#clip0_5_680)">
<g clip-path="url(#clip1_5_680)">
<g clip-path="url(#clip2_5_680)">
<path fill-rule="evenodd" clip-rule="evenodd" d="M33.6008 1.25879C28.0726 1.25879 22.771 3.44498 18.8621 7.33642L0 26.1139V34.709C0 40.7814 2.62013 46.2446 6.79632 50.0392C2.62013 53.8339 0 59.2971 0 65.3695V73.9646L18.8621 92.7422C22.771 96.6336 28.0726 98.8197 33.6008 98.8197C39.7005 98.8197 45.1883 96.2114 49 92.0539C52.8117 96.2114 58.2995 98.8197 64.3992 98.8197C69.9274 98.8197 75.229 96.6336 79.1379 92.7422L98 73.9646V65.3695C98 59.2971 95.38 53.8339 91.2037 50.0392C95.38 46.2446 98 40.7814 98 34.709V26.1139L79.1379 7.33642C75.229 3.44498 69.9274 1.25879 64.3992 1.25879C58.2995 1.25879 52.8117 3.86717 49 8.02466C45.1883 3.86717 39.7005 1.25879 33.6008 1.25879ZM63.1091 50.0392C62.8741 49.8258 62.6436 49.6066 62.4177 49.3817L49 36.0241L35.5823 49.3817C35.3564 49.6066 35.1259 49.8258 34.8909 50.0392C35.1259 50.2527 35.3564 50.4719 35.5823 50.6968L49 64.0544L62.4177 50.6968C62.6436 50.4719 62.8741 50.2527 63.1091 50.0392ZM54.4444 73.9646V78.0695C54.4444 83.5427 58.9014 87.9797 64.3992 87.9797C67.0394 87.9797 69.5714 86.9356 71.4383 85.077L87.1112 69.4744V65.3695C87.1112 59.8963 82.6542 55.4592 77.1564 55.4592C74.5163 55.4592 71.9842 56.5034 70.1173 58.3619L54.4444 73.9646ZM43.5556 73.9646L27.8827 58.3619C26.0158 56.5034 23.4838 55.4592 20.8437 55.4592C15.3458 55.4592 10.8889 59.8963 10.8889 65.3695V69.4744L26.5617 85.077C28.4286 86.9356 30.9606 87.9797 33.6008 87.9797C39.0986 87.9797 43.5556 83.5427 43.5556 78.0695V73.9646ZM43.5556 22.0091V26.1139L27.8827 41.7166C26.0158 43.5751 23.4838 44.6192 20.8437 44.6192C15.3458 44.6192 10.8889 40.1822 10.8889 34.709V30.6041L26.5617 15.0015C28.4286 13.143 30.9606 12.0989 33.6008 12.0989C39.0986 12.0989 43.5556 16.5358 43.5556 22.0091ZM70.1173 41.7166L54.4444 26.1139V22.0091C54.4444 16.5358 58.9014 12.0989 64.3992 12.0989C67.0394 12.0989 69.5714 13.143 71.4383 15.0015L87.1112 30.6041V34.709C87.1112 40.1822 82.6542 44.6192 77.1564 44.6192C74.5163 44.6192 71.9842 43.5751 70.1173 41.7166Z" fill="#FF630B"/>
</g>
</g>
</g>
<defs>
<clipPath id="clip0_5_680">
<rect width="98" height="100" fill="white"/>
</clipPath>
<clipPath id="clip1_5_680">
<rect width="98" height="100" fill="white"/>
</clipPath>
<clipPath id="clip2_5_680">
<rect width="98" height="100" fill="white"/>
</clipPath>
</defs>
</svg>
