<svg width="132" height="48" viewBox="0 0 132 48" fill="none" xmlns="http://www.w3.org/2000/svg">
<g clip-path="url(#clip0_1_1034)">
<g clip-path="url(#clip1_1_1034)">
<path d="M1.60803 20V3.2H12.672V5.816H4.84803V10.208H11.952V12.728H4.84803V17.384H12.672V20H1.60803ZM19.2259 20V5.816H14.3059V3.2H27.3619V5.816H22.4419V20H19.2259ZM39.9308 20V3.2H43.1708V20H39.9308ZM29.3468 20V3.2H32.5868V20H29.3468ZM32.1548 12.728V10.112H40.4828V12.728H32.1548ZM45.0658 20L51.1858 3.2H54.8578L61.0018 20H57.5698L53.0098 6.896L48.4498 20H45.0658ZM47.7778 16.184L48.6178 13.664H57.1858L58.0258 16.184H47.7778ZM62.8746 20V3.2H66.1146L73.8426 14.768V3.2H77.0826V20H73.8426L66.1146 8.456V20H62.8746ZM1.60803 44V27.2H7.92003C9.28003 27.2 10.4 27.432 11.28 27.896C12.176 28.344 12.84 28.96 13.272 29.744C13.72 30.528 13.944 31.416 13.944 32.408C13.944 33.32 13.728 34.168 13.296 34.952C12.88 35.736 12.224 36.376 11.328 36.872C10.448 37.352 9.31203 37.592 7.92003 37.592H4.84803V44H1.60803ZM4.84803 34.976H7.72803C8.75203 34.976 9.48803 34.744 9.93603 34.28C10.4 33.816 10.632 33.192 10.632 32.408C10.632 31.592 10.4 30.96 9.93603 30.512C9.48803 30.064 8.75203 29.84 7.72803 29.84H4.84803V34.976ZM23.9359 44.288C22.2719 44.288 20.8079 43.92 19.5439 43.184C18.2799 42.448 17.2879 41.432 16.5679 40.136C15.8639 38.824 15.5119 37.312 15.5119 35.6C15.5119 33.888 15.8639 32.384 16.5679 31.088C17.2879 29.776 18.2799 28.752 19.5439 28.016C20.8079 27.28 22.2719 26.912 23.9359 26.912C25.5999 26.912 27.0639 27.28 28.3279 28.016C29.6079 28.752 30.5999 29.776 31.3039 31.088C32.0239 32.384 32.3839 33.888 32.3839 35.6C32.3839 37.312 32.0239 38.824 31.3039 40.136C30.5999 41.432 29.6079 42.448 28.3279 43.184C27.0639 43.92 25.5999 44.288 23.9359 44.288ZM23.9359 41.384C24.9759 41.384 25.8799 41.152 26.6479 40.688C27.4159 40.208 28.0079 39.536 28.4239 38.672C28.8559 37.808 29.0719 36.784 29.0719 35.6C29.0719 34.4 28.8559 33.376 28.4239 32.528C28.0079 31.664 27.4159 31 26.6479 30.536C25.8799 30.072 24.9759 29.84 23.9359 29.84C22.8959 29.84 21.9919 30.072 21.2239 30.536C20.4559 31 19.8559 31.664 19.4239 32.528C19.0079 33.376 18.7999 34.4 18.7999 35.6C18.7999 36.784 19.0079 37.808 19.4239 38.672C19.8559 39.536 20.4559 40.208 21.2239 40.688C21.9919 41.152 22.8959 41.384 23.9359 41.384ZM34.8077 44V27.2H41.0957C42.4397 27.2 43.5517 27.432 44.4317 27.896C45.3277 28.36 45.9917 28.984 46.4237 29.768C46.8557 30.536 47.0717 31.392 47.0717 32.336C47.0717 33.232 46.8557 34.072 46.4237 34.856C46.0077 35.624 45.3517 36.248 44.4557 36.728C43.5757 37.192 42.4397 37.424 41.0477 37.424H38.0477V44H34.8077ZM43.5197 44L40.0637 36.608H43.5677L47.2157 44H43.5197ZM38.0477 35.072H40.8797C41.8717 35.072 42.5997 34.832 43.0637 34.352C43.5277 33.872 43.7597 33.24 43.7597 32.456C43.7597 31.672 43.5277 31.056 43.0637 30.608C42.5997 30.144 41.8717 29.912 40.8797 29.912H38.0477V35.072ZM53.574 44V29.816H48.654V27.2H61.71V29.816H56.79V44H53.574ZM63.6949 44V27.2H74.6389V29.816H66.9349V34.304H73.1269V36.848H66.9349V44H63.6949ZM84.6165 44.288C82.9525 44.288 81.4885 43.92 80.2245 43.184C78.9605 42.448 77.9685 41.432 77.2485 40.136C76.5445 38.824 76.1925 37.312 76.1925 35.6C76.1925 33.888 76.5445 32.384 77.2485 31.088C77.9685 29.776 78.9605 28.752 80.2245 28.016C81.4885 27.28 82.9525 26.912 84.6165 26.912C86.2805 26.912 87.7445 27.28 89.0085 28.016C90.2885 28.752 91.2805 29.776 91.9845 31.088C92.7045 32.384 93.0645 33.888 93.0645 35.6C93.0645 37.312 92.7045 38.824 91.9845 40.136C91.2805 41.432 90.2885 42.448 89.0085 43.184C87.7445 43.92 86.2805 44.288 84.6165 44.288ZM84.6165 41.384C85.6565 41.384 86.5605 41.152 87.3285 40.688C88.0965 40.208 88.6885 39.536 89.1045 38.672C89.5365 37.808 89.7525 36.784 89.7525 35.6C89.7525 34.4 89.5365 33.376 89.1045 32.528C88.6885 31.664 88.0965 31 87.3285 30.536C86.5605 30.072 85.6565 29.84 84.6165 29.84C83.5765 29.84 82.6725 30.072 81.9045 30.536C81.1365 31 80.5365 31.664 80.1045 32.528C79.6885 33.376 79.4805 34.4 79.4805 35.6C79.4805 36.784 79.6885 37.808 80.1045 38.672C80.5365 39.536 81.1365 40.208 81.9045 40.688C82.6725 41.152 83.5765 41.384 84.6165 41.384ZM95.4883 44V27.2H98.7283V41.48H106.096V44H95.4883ZM108.561 44V27.2H111.801V44H108.561ZM122.662 44.288C120.998 44.288 119.534 43.92 118.27 43.184C117.006 42.448 116.014 41.432 115.294 40.136C114.59 38.824 114.238 37.312 114.238 35.6C114.238 33.888 114.59 32.384 115.294 31.088C116.014 29.776 117.006 28.752 118.27 28.016C119.534 27.28 120.998 26.912 122.662 26.912C124.326 26.912 125.79 27.28 127.054 28.016C128.334 28.752 129.326 29.776 130.03 31.088C130.75 32.384 131.11 33.888 131.11 35.6C131.11 37.312 130.75 38.824 130.03 40.136C129.326 41.432 128.334 42.448 127.054 43.184C125.79 43.92 124.326 44.288 122.662 44.288ZM122.662 41.384C123.702 41.384 124.606 41.152 125.374 40.688C126.142 40.208 126.734 39.536 127.15 38.672C127.582 37.808 127.798 36.784 127.798 35.6C127.798 34.4 127.582 33.376 127.15 32.528C126.734 31.664 126.142 31 125.374 30.536C124.606 30.072 123.702 29.84 122.662 29.84C121.622 29.84 120.718 30.072 119.95 30.536C119.182 31 118.582 31.664 118.15 32.528C117.734 33.376 117.526 34.4 117.526 35.6C117.526 36.784 117.734 37.808 118.15 38.672C118.582 39.536 119.182 40.208 119.95 40.688C120.718 41.152 121.622 41.384 122.662 41.384Z" fill="white"/>
<path d="M84.8521 15.076V3.268H87.9601V4.576H86.3641V13.756H87.9601V15.076H84.8521ZM91.3167 13V5.908H88.8567V4.6H95.3727V5.908H92.9247V13H91.3167ZM96.448 13V4.6H98.38L100.9 9.856L103.396 4.6H105.328V13H103.708V7.372L101.536 11.848H100.252L98.068 7.384V13H96.448ZM109.85 15.076H106.73V13.756H108.326V4.576H106.73V3.268H109.85V15.076Z" fill="white" fill-opacity="0.8"/>
</g>
</g>
<defs>
<clipPath id="clip0_1_1034">
<rect width="132" height="48" fill="white"/>
</clipPath>
<clipPath id="clip1_1_1034">
<rect width="132" height="48" fill="white"/>
</clipPath>
</defs>
</svg>
