<svg width="100" height="100" viewBox="0 0 100 100" fill="none" xmlns="http://www.w3.org/2000/svg">
<g clip-path="url(#clip0_5_667)">
<g clip-path="url(#clip1_5_667)">
<mask id="mask0_5_667" style="mask-type:luminance" maskUnits="userSpaceOnUse" x="0" y="0" width="100" height="100">
<path d="M100 0H0V100H100V0Z" fill="white"/>
</mask>
<g mask="url(#mask0_5_667)">
<path d="M84.31 91.4522C94.3565 81.4055 100.001 67.7795 100.001 53.5715C100.001 39.3635 94.3565 25.7372 84.31 15.6907C74.2635 5.64412 60.6373 2.5547e-06 46.4293 0C32.2213 -2.5547e-06 18.5952 5.6441 8.54858 15.6907L26.2263 33.3682C29.0158 36.1577 33.5203 36.0185 37.069 34.2952C39.959 32.892 43.1555 32.1427 46.4293 32.1427C52.1125 32.1427 57.563 34.4005 61.5815 38.4193C65.6003 42.4377 67.8578 47.8883 67.8578 53.5715C67.8578 56.8452 67.1088 60.0418 65.7055 62.9318C63.9823 66.4805 63.843 70.985 66.6323 73.7745L84.31 91.4522Z" fill="#297AFF"/>
<path d="M75 100H48.7745C44.9857 100 41.352 98.495 38.673 95.8158L4.1842 61.327C1.5051 58.648 0 55.0142 0 51.2255V25L75 100Z" fill="#34C2FF"/>
<path d="M26.7858 99.9996H10.7143C4.79695 99.9996 0 95.2029 0 89.2854V73.2139L26.7858 99.9996Z" fill="#34C2FF"/>
</g>
</g>
</g>
<defs>
<clipPath id="clip0_5_667">
<rect width="100" height="100" fill="white"/>
</clipPath>
<clipPath id="clip1_5_667">
<rect width="100" height="100" fill="white"/>
</clipPath>
</defs>
</svg>
